<?xml version="1.0" encoding="utf-8"?>
<!-- Generator: Adobe Illustrator 18.1.1, SVG Export Plug-In . SVG Version: 6.00 Build 0)  -->
<svg version="1.1" xmlns="http://www.w3.org/2000/svg" xmlns:xlink="http://www.w3.org/1999/xlink" x="0px" y="0px" width="31px"
	 height="20px" viewBox="0 0 31 20" enable-background="new 0 0 31 20" xml:space="preserve">
<g id="Layer_2" display="none">
	<rect x="0" display="inline" fill="#220E0F" width="35.7" height="20"/>
</g>
<g id="Layer_1" display="none">
	<rect x="1.5" display="inline" fill="#FFFFFF" width="28" height="4.5"/>
	<rect x="1.5" y="15.5" display="inline" fill="#FFFFFF" width="28" height="4.5"/>
	<rect x="1.5" y="7.8" display="inline" fill="#FFFFFF" width="28" height="4.5"/>
	<rect x="18.5" y="3" fill="#ED1C24" width="2" height="2"/>
</g>
<g id="Layer_3">
	<rect x="1.5" fill="#FFFFFF" width="4.5" height="4.5"/>
	<rect x="7.2" fill="#FFFFFF" width="4.5" height="4.5"/>
	<rect x="25" fill="#FFFFFF" width="4.5" height="4.5"/>
	<rect x="19.2" fill="#FFFFFF" width="4.5" height="4.5"/>
	<rect x="13.2" fill="#FFFFFF" width="4.5" height="4.5"/>
	<rect x="1.5" y="7.8" fill="#FFFFFF" width="4.5" height="4.5"/>
	<rect x="1.5" y="15.5" fill="#FFFFFF" width="4.5" height="4.5"/>
	<rect x="7.2" y="7.8" fill="#FFFFFF" width="4.5" height="4.5"/>
	<rect x="13.2" y="7.8" fill="#FFFFFF" width="4.5" height="4.5"/>
	<rect x="19.2" y="7.8" fill="#FFFFFF" width="4.5" height="4.5"/>
	<rect x="25" y="7.8" fill="#FFFFFF" width="4.5" height="4.5"/>
	<rect x="25" y="15.5" fill="#FFFFFF" width="4.5" height="4.5"/>
	<rect x="19.2" y="15.5" fill="#FFFFFF" width="4.5" height="4.5"/>
	<rect x="13.3" y="15.5" fill="#FFFFFF" width="4.5" height="4.5"/>
	<rect x="7.2" y="15.5" fill="#FFFFFF" width="4.5" height="4.5"/>
</g>
</svg>
