<?xml version="1.0" encoding="utf-8"?>
<!-- Generator: Adobe Illustrator 18.1.1, SVG Export Plug-In . SVG Version: 6.00 Build 0)  -->
<svg version="1.1" id="logo" xmlns="http://www.w3.org/2000/svg" xmlns:xlink="http://www.w3.org/1999/xlink" x="0px" y="0px"
	 width="811.3px" height="177.3px" viewBox="-0.3 412 811.3 177.3" enable-background="new -0.3 412 811.3 177.3"
	 xml:space="preserve">
<g>
	<path fill="#2B2B2B" d="M319.8,486.5v-11h37.3v11H319.8z M344.9,525.5c-6,0-10.6-1.5-13.9-4.6c-3.3-3-5-7.6-5-13.6V463h14.7v44.2
		c0,2.1,0.6,3.8,1.7,4.9c1.1,1.2,2.7,1.7,4.6,1.7c2.3,0,4.3-0.6,5.9-1.9l3.9,10.3c-1.5,1.1-3.3,1.9-5.4,2.4
		C349.3,525.2,347.1,525.5,344.9,525.5z"/>
	<path fill="#2B2B2B" d="M740.6,525.5c-5.4,0-10.2-1.1-14.2-3.2c-4.1-2.2-7.2-5.1-9.5-8.9c-2.2-3.8-3.4-8-3.4-12.9
		c0-4.9,1.1-9.2,3.3-13c2.2-3.8,5.2-6.7,9-8.8s8.1-3.2,13-3.2c4.6,0,8.8,1,12.6,3c3.7,2,6.7,4.9,8.9,8.7s3.3,8.3,3.3,13.5
		c0,0.5,0,1.2-0.1,1.9s-0.1,1.3-0.2,1.9h-38.5v-8.2H756l-5.3,2.4c0-2.5-0.5-4.7-1.5-6.6c-1-1.9-2.4-3.3-4.1-4.4
		c-1.8-1.1-3.8-1.6-6.2-1.6s-4.4,0.5-6.2,1.6s-3.2,2.5-4.2,4.4c-1,1.9-1.5,4.1-1.5,6.7v2.2c0,2.6,0.6,5,1.7,7c1.1,2,2.8,3.6,4.9,4.6
		c2.1,1.1,4.5,1.6,7.4,1.6c2.5,0,4.7-0.4,6.7-1.2c1.9-0.8,3.7-2,5.2-3.5l7.3,8.1c-2.2,2.5-4.9,4.5-8.2,5.8
		C748.7,524.8,744.9,525.5,740.6,525.5z"/>
	<path fill="#2B2B2B" d="M687,475.5c3.9,0,7.3,0.8,10.4,2.3c3.1,1.6,5.5,3.9,7.2,7.1c1.8,3.2,2.6,7.3,2.6,12.3v28.2H693v-26
		c0-4-0.9-6.9-2.6-8.8c-1.7-1.9-4.2-2.8-7.3-2.8c-2.2,0-4.3,0.5-6,1.4c-1.8,0.9-3.2,2.4-4.2,4.3c-1,2-1.5,4.5-1.5,7.5v24.4h-14.2
		v-50h13.5v14.4l-2.5-4.1c1.8-3.3,4.3-5.8,7.5-7.6C679.1,476.4,682.8,475.5,687,475.5z"/>
	<path fill="#2B2B2B" d="M641.6,525.5c-2.6,0-4.8-0.9-6.6-2.7s-2.8-4-2.8-6.8s0.9-5,2.8-6.7c1.8-1.7,4-2.6,6.6-2.6s4.9,0.9,6.7,2.6
		s2.7,3.9,2.7,6.7s-0.9,5-2.7,6.8S644.3,525.5,641.6,525.5z"/>
	<path fill="#2B2B2B" d="M599.3,525.5c-3.6,0-6.7-0.6-9.3-1.9c-2.6-1.3-4.6-3.1-5.9-5.3c-1.4-2.2-2.1-4.7-2.1-7.5
		c0-2.9,0.7-5.4,2-7.6s3.5-3.9,6.4-5.1c2.9-1.2,6.7-1.9,11.5-1.9h12.3v8.2h-10.8c-3.2,0-5.3,0.5-6.5,1.6s-1.8,2.4-1.8,4.1
		c0,1.8,0.7,3.2,2,4.3c1.3,1.1,3.2,1.6,5.6,1.6c2.2,0,4.2-0.6,6-1.7c1.8-1.1,3.1-2.8,3.9-4.9l2.1,6.5c-1,3.1-2.8,5.5-5.3,7.1
		C606.7,524.7,603.4,525.5,599.3,525.5z M613.4,525.5v-10.2l-0.9-2.1v-17c0-3-0.9-5.4-2.6-7c-1.8-1.7-4.4-2.5-8.1-2.5
		c-2.5,0-4.9,0.4-7.3,1.2c-2.4,0.8-4.4,1.9-6.1,3.3l-4.8-9.8c2.5-1.9,5.6-3.3,9.1-4.3c3.6-1,7.2-1.5,10.8-1.5
		c7.1,0,12.5,1.7,16.4,5.2s5.9,8.9,5.9,16.3v28.4H613.4L613.4,525.5z"/>
	<path fill="#2B2B2B" d="M526,525.5v-68.7h14.7v68.8L526,525.5L526,525.5z M538.1,515.2l0.4-17.9l25-21.8h18.8L556.9,498l-7.6,6.2
		L538.1,515.2z M564.4,525.5l-17.9-21.2l9.2-11.4l26.4,32.6H564.4z"/>
	<path fill="#2B2B2B" d="M476,525.5v-8.7l29.6-34.9l2.5,4.8H476v-11.2h43.8v8.7l-29.6,34.9l-2.6-4.8h32.2v11.2H476z"/>
	<path fill="#2B2B2B" d="M446.8,525.5c-5.2,0-9.9-1.1-14-3.2c-4.1-2.1-7.3-5.1-9.6-8.9c-2.3-3.8-3.5-8.1-3.5-12.9
		c0-4.9,1.2-9.2,3.5-13c2.3-3.8,5.5-6.7,9.6-8.8s8.8-3.2,14-3.2c5.1,0,9.6,1.1,13.4,3.2c3.8,2.1,6.6,5.2,8.4,9.2l-10.9,5.9
		c-1.3-2.3-2.8-4-4.7-5.1c-1.9-1.1-4-1.6-6.2-1.6c-2.4,0-4.6,0.5-6.5,1.6c-1.9,1.1-3.4,2.6-4.6,4.6c-1.1,2-1.7,4.4-1.7,7.2
		s0.6,5.2,1.7,7.2s2.6,3.5,4.6,4.6c1.9,1.1,4.1,1.6,6.5,1.6c2.2,0,4.3-0.5,6.2-1.6c1.9-1.1,3.5-2.8,4.7-5.1l10.9,6
		c-1.8,3.9-4.6,6.9-8.4,9.1C456.4,524.4,451.9,525.5,446.8,525.5z"/>
	<path fill="#2B2B2B" d="M377.4,545.1c-2.5,0-5.1-0.4-7.5-1.2c-2.5-0.8-4.5-1.9-6.1-3.4l5.2-10.4c1.1,1,2.3,1.8,3.8,2.3
		c1.4,0.6,2.8,0.8,4.2,0.8c2,0,3.6-0.5,4.8-1.5c1.2-1,2.3-2.6,3.2-4.8l2.5-6.2l1.1-1.6l17.5-43.6h13.6l-22.1,53.7
		c-1.6,4.1-3.4,7.3-5.4,9.6c-2,2.3-4.3,3.9-6.7,4.9C383.1,544.6,380.4,545.1,377.4,545.1z M385.7,528l-21.8-52.5h14.6l16.9,42.3
		L385.7,528z"/>
	<path fill="#2B2B2B" d="M769.8,486.5v-11h37.3v11H769.8z M794.8,525.5c-6,0-10.6-1.5-13.9-4.6c-3.3-3-5-7.6-5-13.6V463h14.7v44.2
		c0,2.1,0.6,3.8,1.7,4.9c1.1,1.2,2.7,1.7,4.6,1.7c2.3,0,4.3-0.6,5.9-1.9l3.9,10.3c-1.5,1.1-3.3,1.9-5.4,2.4
		C799.3,525.2,797.1,525.5,794.8,525.5z"/>
	<path fill="#2B2B2B" d="M244.1,525.5l-18.1-50h13.7l15,43h-6.5l15.7-43h12.3l15.2,43H285l15.5-43h12.9l-18.2,50h-14.1l-13.4-36.9
		h4.3l-13.8,36.9H244.1z"/>
	
		<rect x="123.4" y="480.9" transform="matrix(-0.8609 -0.5088 0.5088 -0.8609 -7.1602 985.2787)" fill="#F05A22" width="15.4" height="25.4"/>
	
		<rect x="65.8" y="446.9" transform="matrix(-0.8609 -0.5088 0.5088 -0.8609 -97.0071 892.6328)" fill="#F05A22" width="15.4" height="25.4"/>
	<path fill="#F05A22" d="M110.7,513.4l-13.3-7.8c0,0.1-0.1,0.1-0.1,0.2 M66.4,487.3l-26.6-15.7c-2.7,4.6-4.7,9.5-6,14.4
		c-2.3,8.9-2.4,18.1-0.4,26.8c0.3,1.2,0.6,2.4,0.9,3.6c3.2,10.8,9.7,20.7,19,28.1l-16,27.1c2,1.4,4,2.8,6.1,4l1,0.6
		c2,1.2,4.1,2.3,6.2,3.3c14.1,6.8,29.2,9.4,43.9,8.4c10.6-0.7,21-3.4,30.7-7.9c15.2-7,28.6-18.5,37.9-33.8l1.2-2.1
		c8.9-15.6,12.5-32.8,11.4-49.5c-0.7-10.6-3.4-21-7.9-30.7c-7-15.2-18.4-28.5-33.8-37.9l-2.3-1.3c-15.6-8.9-32.8-12.5-49.5-11.3
		c-10.6,0.7-21,3.4-30.7,7.9c-15.2,7-28.6,18.5-38,33.9l-0.9,1.8c-9,15.6-12.6,32.9-11.4,49.6c0.2,2.7,0.5,5.3,0.9,8
		c0.8,5.1,2.1,10.1,3.8,15l14.2-3.6l0.9-0.2c-1.8-4.8-3.1-9.9-3.8-15l0,0l-0.1-0.6c-2.1-15.4,0.8-31.5,9.2-46
		c0.1-0.1,0.1-0.2,0.2-0.3s0.1-0.2,0.2-0.3c8.6-14.3,21.3-24.6,35.8-30.2c5.3-2.1,10.9-3.5,16.5-4.2c15.3-2.1,31.3,0.8,45.7,9.1
		c0.2,0.1,0.4,0.2,0.5,0.3c0.2,0.1,0.4,0.2,0.5,0.3c14.2,8.6,24.4,21.3,30,35.6c2.1,5.3,3.5,10.9,4.2,16.5
		c2.1,15.5-0.8,31.7-9.4,46.2c-8.6,14.5-21.4,24.9-36,30.5c-5.3,2.1-10.9,3.5-16.5,4.2c-13.1,1.8-26.8-0.1-39.5-5.9l8.1-13.7
		c10.9,4.6,22.7,5.5,33.8,3.1c1.4-0.3,2.7-0.6,4.1-1c8.4-2.5,16.3-6.9,22.8-13.2c3.7-3.5,7-7.6,9.7-12.2l-26.3-15.5 M97.2,505.8
		l-31-18.3 M47.7,494.6l65.5,38.7c-12.9,9.9-31,11.6-45.9,2.8C52.5,527.3,45.2,510.6,47.7,494.6z"/>
</g>
</svg>
